<svg xmlns="http://www.w3.org/2000/svg" width="814" height="223.6" viewBox="0 -149 814 223.6" xmlns:c2pa="http://c2pa.org/manifest"><metadata><c2pa:manifest>AAAWgmp1bWIAAAAeanVtZGMycGEAEQAQgAAAqgA4m3EDYzJwYQAAABZcanVtYgAAAEdqdW1kYzJtYQARABCAAACqADibcQN1cm46YzJwYToxZTAyNzA1My1iZDA1LTQyNWMtODViNi00MWU1ODI0YTk4ZDcAAAADl2p1bWIAAAApanVtZGMyYXMAEQAQgAAAqgA4m3EDYzJwYS5hc3NlcnRpb25zAAAAALxqdW1iAAAARGp1bWRjYm9yABEAEIAAAKoAOJtxE2MycGEuaW5ncmVkaWVudC52MwAAAAAYYzJzaJRUm4Xh5hajxqwFdyRgTEwAAABwY2JvcqNpZGM6Zm9ybWF0bWltYWdlL3N2Zyt4bWxqaW5zdGFuY2VJRHgseG1wOmlpZDpjNTdmMTQ5Ny02ZGFiLTRiY2ItYTgyNi1lNDJiYzQzMWQyMmFscmVsYXRpb25zaGlwaHBhcmVudE9mAAAB4mp1bWIAAABBanVtZGNib3IAEQAQgAAAqgA4m3ETYzJwYS5hY3Rpb25zLnYyAAAAABhjMnNo6N9Vn/YN+2w7jvkQVe6nJgAAAZljYm9yomdhY3Rpb25zgqJmYWN0aW9ua2MycGEub3BlbmVkanBhcmFtZXRlcnOha2luZ3JlZGllbnRzgaJjdXJseC1zZWxmI2p1bWJmPWMycGEuYXNzZXJ0aW9ucy9jMnBhLmluZ3JlZGllbnQudjNkaGFzaFggkvXfOYGkmo2Kn4AQLbXnnr3pUt9Kd49CfViXl7s4/OWkZmFjdGlvbngdY29tLmFudGhyb3BpYy5jbGF1ZGUucHJvdmlkZWRqcGFyYW1ldGVyc6F4H2NvbS5hbnRocm9waWMub3JpZ2luLWNvbmZpZGVuY2VndW5rbm93bmtkZXNjcmlwdGlvbnhmQ2xhdWRlIHByb3ZpZGVkIHRoaXMgZmlsZSBhdCB0aGUgcmVxdWVzdCBvZiBhIHVzZXIgYW5kIG1heSBoYXZlIGNyZWF0ZWQgb3IgbW9kaWZpZWQgdGhlIGZpbGUgY29udGVudHMubXNvZnR3YXJlQWdlbnShZG5hbWVmQ2xhdWRlcmFsbEFjdGlvbnNJbmNsdWRlZPUAAADIanVtYgAAAEBqdW1kY2JvcgARABCAAACqADibcRNjMnBhLmhhc2guZGF0YQAAAAAYYzJzaFVMucSFyF6tqijK7vBsPvMAAACAY2JvcqVjYWxnZnNoYTI1NmNwYWRNAAAAAAAAAAAAAAAAAGRoYXNoWCCi/1wuN09kSbAG/pzO+y9xUauT5TYBSWBfYtoaudFkS2RuYW1lbmp1bWJmIG1hbmlmZXN0amV4Y2x1c2lvbnOBomVzdGFydBidZmxlbmd0aBkeBAAAAj5qdW1iAAAAJ2p1bWRjMmNsABEAEIAAAKoAOJtxA2MycGEuY2xhaW0udjIAAAACD2Nib3KlY2FsZ2ZzaGEyNTZpc2lnbmF0dXJleE1zZWxmI2p1bWJmPS9jMnBhL3VybjpjMnBhOjFlMDI3MDUzLWJkMDUtNDI1Yy04NWI2LTQxZTU4MjRhOThkNy9jMnBhLnNpZ25hdHVyZWppbnN0YW5jZUlEeCx4bXA6aWlkOjJjZjZiY2NkLTNmMWMtNGMxZC04NWYwLThkNGFmMmM0OWZmM3JjcmVhdGVkX2Fzc2VydGlvbnODomN1cmx4LXNlbGYjanVtYmY9YzJwYS5hc3NlcnRpb25zL2MycGEuaW5ncmVkaWVudC52M2RoYXNoWCCS9d85gaSajYqfgBAtteeevelS30p3j0J9WJeXuzj85aJjdXJseCpzZWxmI2p1bWJmPWMycGEuYXNzZXJ0aW9ucy9jMnBhLmFjdGlvbnMudjJkaGFzaFggkmwr1Jo6Vx+XIcIgFjzS6L2YbeMzYAE8tYbbJYYvuf2iY3VybHgpc2VsZiNqdW1iZj1jMnBhLmFzc2VydGlvbnMvYzJwYS5oYXNoLmRhdGFkaGFzaFgg9779cSuwPIFGuvHVpuwsGeLBC05eMOetnfBLqtrWd2t0Y2xhaW1fZ2VuZXJhdG9yX2luZm+jZG5hbWVvQW50aHJvcGljIEZpbGVzZ3ZlcnNpb25lMS4wLjBrc3BlY1ZlcnNpb25lMi40LjAAABA4anVtYgAAAChqdW1kYzJjcwARABCAAACqADibcQNjMnBhLnNpZ25hdHVyZQAAABAIY2JvctKEWQISogEmGCFZAgowggIGMIIBjaADAgECAhRA5aAK7sI50L64g/oGQgU9Z1UTADAKBggqhkjOPQQDAzBJMRcwFQYDVQQKEw5BbnRocm9waWMsIFBCQzEuMCwGA1UEAxMlQW50aHJvcGljIENvbnRlbnQgQ3JlZGVudGlhbHMgUm9vdCBDQTAeFw0yNjA4MDcxODQzNTZaFw0yODA4MDYxOTQzNTZaMEQxFzAVBgNVBAoTDkFudGhyb3BpYywgUEJDMSkwJwYDVQQDEyBBbnRocm9waWMgQ2xhdWRlIENvbnRlbnQgU2lnbmluZzBZMBMGByqGSM49AgEGCCqGSM49AwEHA0IABJh6CmvLUBgFFNU0vUKlOVtE6djd17L5SuwX0LemFisBM3dkd/3cyjxFA3Qo5S46fX0/ihY0VZ7mfb9KF703t5OjWDBWMA4GA1UdDwEB/wQEAwIHgDAVBgNVHSUEDjAMBgorBgEEAYPoXgIBMAwGA1UdEwEB/wQCMAAwHwYDVR0jBBgwFoAUzlHiBIFOZFsj+OPEz5o+nMHXXMIwCgYIKoZIzj0EAwMDZwAwZAIwMXMdFJ4BetLLVY7ORuE9noqbbAZOZn/aArXyTwFAZfKrPzxF2vPoJNf1+UCdg1XGAjBwX1zd9WGqYkqmL5SFqw1QySjr1zJfpJM9+1rdDwSPLMOPOjKuiXjoU/pUUeG9RwmhY3BhZFkNngAAAAAAAAAAAAAAAAAAAAAAAAAAAAAAAAAAAAAAAAAAAAAAAAAAAAAAAAAAAAAAAAAAAAAAAAAAAAAAAAAAAAAAAAAAAAAAAAAAAAAAAAAAAAAAAAAAAAAAAAAAAAAAAAAAAAAAAAAAAAAAAAAAAAAAAAAAAAAAAAAAAAAAAAAAAAAAAAAAAAAAAAAAAAAAAAAAAAAAAAAAAAAAAAAAAAAAAAAAAAAAAAAAAAAAAAAAAAAAAAAAAAAAAAAAAAAAAAAAAAAAAAAAAAAAAAAAAAAAAAAAAAAAAAAAAAAAAAAAAAAAAAAAAAAAAAAAAAAAAAAAAAAAAAAAAAAAAAAAAAAAAAAAAAAAAAAAAAAAAAAAAAAAAAAAAAAAAAAAAAAAAAAAAAAAAAAAAAAAAAAAAAAAAAAAAAAAAAAAAAAAAAAAAAAAAAAAAAAAAAAAAAAAAAAAAAAAAAAAAAAAAAAAAAAAAAAAAAAAAAAAAAAAAAAAAAAAAAAAAAAAAAAAAAAAAAAAAAAAAAAAAAAAAAAAAAAAAAAAAAAAAAAAAAAAAAAAAAAAAAAAAAAAAAAAAAAAAAAAAAAAAAAAAAAAAAAAAAAAAAAAAAAAAAAAAAAAAAAAAAAAAAAAAAAAAAAAAAAAAAAAAAAAAAAAAAAAAAAAAAAAAAAAAAAAAAAAAAAAAAAAAAAAAAAAAAAAAAAAAAAAAAAAAAAAAAAAAAAAAAAAAAAAAAAAAAAAAAAAAAAAAAAAAAAAAAAAAAAAAAAAAAAAAAAAAAAAAAAAAAAAAAAAAAAAAAAAAAAAAAAAAAAAAAAAAAAAAAAAAAAAAAAAAAAAAAAAAAAAAAAAAAAAAAAAAAAAAAAAAAAAAAAAAAAAAAAAAAAAAAAAAAAAAAAAAAAAAAAAAAAAAAAAAAAAAAAAAAAAAAAAAAAAAAAAAAAAAAAAAAAAAAAAAAAAAAAAAAAAAAAAAAAAAAAAAAAAAAAAAAAAAAAAAAAAAAAAAAAAAAAAAAAAAAAAAAAAAAAAAAAAAAAAAAAAAAAAAAAAAAAAAAAAAAAAAAAAAAAAAAAAAAAAAAAAAAAAAAAAAAAAAAAAAAAAAAAAAAAAAAAAAAAAAAAAAAAAAAAAAAAAAAAAAAAAAAAAAAAAAAAAAAAAAAAAAAAAAAAAAAAAAAAAAAAAAAAAAAAAAAAAAAAAAAAAAAAAAAAAAAAAAAAAAAAAAAAAAAAAAAAAAAAAAAAAAAAAAAAAAAAAAAAAAAAAAAAAAAAAAAAAAAAAAAAAAAAAAAAAAAAAAAAAAAAAAAAAAAAAAAAAAAAAAAAAAAAAAAAAAAAAAAAAAAAAAAAAAAAAAAAAAAAAAAAAAAAAAAAAAAAAAAAAAAAAAAAAAAAAAAAAAAAAAAAAAAAAAAAAAAAAAAAAAAAAAAAAAAAAAAAAAAAAAAAAAAAAAAAAAAAAAAAAAAAAAAAAAAAAAAAAAAAAAAAAAAAAAAAAAAAAAAAAAAAAAAAAAAAAAAAAAAAAAAAAAAAAAAAAAAAAAAAAAAAAAAAAAAAAAAAAAAAAAAAAAAAAAAAAAAAAAAAAAAAAAAAAAAAAAAAAAAAAAAAAAAAAAAAAAAAAAAAAAAAAAAAAAAAAAAAAAAAAAAAAAAAAAAAAAAAAAAAAAAAAAAAAAAAAAAAAAAAAAAAAAAAAAAAAAAAAAAAAAAAAAAAAAAAAAAAAAAAAAAAAAAAAAAAAAAAAAAAAAAAAAAAAAAAAAAAAAAAAAAAAAAAAAAAAAAAAAAAAAAAAAAAAAAAAAAAAAAAAAAAAAAAAAAAAAAAAAAAAAAAAAAAAAAAAAAAAAAAAAAAAAAAAAAAAAAAAAAAAAAAAAAAAAAAAAAAAAAAAAAAAAAAAAAAAAAAAAAAAAAAAAAAAAAAAAAAAAAAAAAAAAAAAAAAAAAAAAAAAAAAAAAAAAAAAAAAAAAAAAAAAAAAAAAAAAAAAAAAAAAAAAAAAAAAAAAAAAAAAAAAAAAAAAAAAAAAAAAAAAAAAAAAAAAAAAAAAAAAAAAAAAAAAAAAAAAAAAAAAAAAAAAAAAAAAAAAAAAAAAAAAAAAAAAAAAAAAAAAAAAAAAAAAAAAAAAAAAAAAAAAAAAAAAAAAAAAAAAAAAAAAAAAAAAAAAAAAAAAAAAAAAAAAAAAAAAAAAAAAAAAAAAAAAAAAAAAAAAAAAAAAAAAAAAAAAAAAAAAAAAAAAAAAAAAAAAAAAAAAAAAAAAAAAAAAAAAAAAAAAAAAAAAAAAAAAAAAAAAAAAAAAAAAAAAAAAAAAAAAAAAAAAAAAAAAAAAAAAAAAAAAAAAAAAAAAAAAAAAAAAAAAAAAAAAAAAAAAAAAAAAAAAAAAAAAAAAAAAAAAAAAAAAAAAAAAAAAAAAAAAAAAAAAAAAAAAAAAAAAAAAAAAAAAAAAAAAAAAAAAAAAAAAAAAAAAAAAAAAAAAAAAAAAAAAAAAAAAAAAAAAAAAAAAAAAAAAAAAAAAAAAAAAAAAAAAAAAAAAAAAAAAAAAAAAAAAAAAAAAAAAAAAAAAAAAAAAAAAAAAAAAAAAAAAAAAAAAAAAAAAAAAAAAAAAAAAAAAAAAAAAAAAAAAAAAAAAAAAAAAAAAAAAAAAAAAAAAAAAAAAAAAAAAAAAAAAAAAAAAAAAAAAAAAAAAAAAAAAAAAAAAAAAAAAAAAAAAAAAAAAAAAAAAAAAAAAAAAAAAAAAAAAAAAAAAAAAAAAAAAAAAAAAAAAAAAAAAAAAAAAAAAAAAAAAAAAAAAAAAAAAAAAAAAAAAAAAAAAAAAAAAAAAAAAAAAAAAAAAAAAAAAAAAAAAAAAAAAAAAAAAAAAAAAAAAAAAAAAAAAAAAAAAAAAAAAAAAAAAAAAAAAAAAAAAAAAAAAAAAAAAAAAAAAAAAAAAAAAAAAAAAAAAAAAAAAAAAAAAAAAAAAAAAAAAAAAAAAAAAAAAAAAAAAAAAAAAAAAAAAAAAAAAAAAAAAAAAAAAAAAAAAAAAAAAAAAAAAAAAAAAAAAAAAAAAAAAAAAAAAAAAAAAAAAAAAAAAAAAAAAAAAAAAAAAAAAAAAAAAAAAAAAAAAAAAAAAAAAAAAAAAAAAAAAAAAAAAAAAAAAAAAAAAAAAAAAAAAAAAAAAAAAAAAAAAAAAAAAAAAAAAAAAAAAAAAAAAAAAAAAAAAAAAAAAAAAAAAAAAAAAAAAAAAAAAAAAAAAAAAAAAAAAAAAAAAAAAAAAAAAAAAAAAAAAAAAAAAAAAAAAAAAAAAAAAAAAAAAAAAAAAAAAAAAAAAAAAAAAAAAAAAAAAAAAAAAAAAAAAAAAAAAAAAAAAAAAAAAAAAAAAAAAAAAAAAAAAAAAAAAAAAAAAAAAAAAAAAAAAAAAAAAAAAAAAAAAAAAAAAAAAAAAAAAAAAAAAAAAAAAAAAAAAAAAAAAAAAAAAAAAAAAAAAAAAAAAAAAAAAAAAAAAAAAAAAAAAAAAAAAAAAAAAAAAAAAAAAAAAAAAAAAAAAAAAAAAAAAAAAAAAAAAAAAAAAAAAAAAAAAAAAAAAAAAAAAAAAAAAAAAAAAAAAAAAAAAAAAAAAAAAAAAAAAAAAAAAAAAAAAAAAAAAAAAAAAAAAAAAAAAAAAAAAAAAAAAAAAAAAAAAAAAAAAAAAAAAAAAAAAAAAAAAAAAAAAAAAAAAAAAAAAAAAAAAAAAAAAAAAAAAAAAAAAAAAAAAAAAAAAAAAAAAAAAAAAAAAAAAAAAAAAAAAAAAAAAAAAAAAAAAAAAAAAAAAAAAAAAAAAAAAAAAAAAAAAAAAAAAAAAAAAAAAAAAAAAAAAAAAAAAAAAAAAAAAAAAAAAAAAAAAAAAAAAAAAAAAAAAAAAAAAAAAAAAAAAAAAAAAAAAAAAAAAAAAAAAAAAAAAAAAAAAAAAAAAAAAAAAAAAAAAAAAAAAAAAAAAAAAAAAAAAAAAAAAAAAAAAAAAAAAAAAAAAAAAAAAAAAAAAAAAAAAAAAAAAAAAAAAAAAAAAAAAAAAAAAAAAAAAAAAAAAAAAAAAAAAAAAAAAAAAAAAAAAAAAAAAAAAAAAAAAAAAAAAAAAAAAAAAAAAAAAAAAAAAAAAAAAAAAAAAAAAAAAAAAAAAAAAAAAAAAAAAAAAAAAAAAAAAAAAAAAAAAAAAAAAAAAAAAAAAAAAAAAAAAAAAAAAAAAAAAAAAAAAAAAAAAAAAAAAAAAAAAAAAAAAAAAAAAAAAAAAAAAAAAAAAAAAAAAAAAAAAAAAAAAAAAAAAAAAAAAAAAAAAAAAAAAAAAAAAAAAAAAAAAAAAAAAAAAAAAAAAAAAAAAAAAAAAAAAAAAAAAAAAAAAAAAAAAAAAAAAAAAAAAAAAAAAAAAAAAAAAAAAAAAAAAAAAAAAAAAAAAAAAAAAAAAAAAAAAAAAAAAAAAAAAAAAAAAAAAAAAAAAAAAAAAAAAAAAAAAAAAAAAAAAAAAAAAAAAAAAAAAAAAAAAAAAAAAAAAAAAAAAAAAAAAAAAAAAAAAAAAAAAAAAAAAAAAAAAAAAAAAAAAAAAAAAAAAAAAAAAAAAAAAAAAAAAAAAAAAAAAAAAAAAAAAAAAAAAAAAAAAAAAAAAAAAAAAAAAAAAAAAAAAAAAAAAAAAAAAAAAAAAAAAAAAAAAAAAAAAAAAAAAAAAAAAPZYQO21JYRqbYsTRCzy4iTtkZnxSQeDSV86N2pd4FV6ecvdq7zDLfcJWlVZ3T9+jl01DMn7yA3oSjkreSmWPCHLsMA=</c2pa:manifest></metadata><path d="M81 0L30.40 0Q22.60 0 18.40-4.20Q14.20-8.40 14.20-16.20L14.20-16.20L14.20-124.80Q14.20-132.60 18.40-136.80Q22.60-141 30.40-141L30.40-141L78.80-141Q93.80-141 104.40-136.60Q115-132.20 120.50-124Q126-115.80 126-104.40L126-104.40Q126-91.80 118.80-83L118.80-83Q113.40-76.40 104.80-73L104.80-73Q115.40-70 121.80-63L121.80-63Q129.80-54 129.80-39.80L129.80-39.80Q129.80-21 116.80-10.50Q103.80 0 81 0L81 0ZM43.80-60L43.80-23L76.80-23Q88.80-23 94.40-27.70Q100-32.40 100-41.60Q100-50.80 94.40-55.40Q88.80-60 76.80-60L76.80-60L43.80-60ZM43.80-118L43.80-83L73.40-83Q85-83 90.60-87.40Q96.20-91.80 96.20-100.60L96.20-100.60Q96.20-109.20 90.60-113.60Q85-118 73.40-118L73.40-118L43.80-118ZM182 2.20L182 2.20Q164.20 2.20 155.40-7.70Q146.60-17.60 146.60-37.20L146.60-37.20L146.60-127.40Q146.60-135 150.50-138.90Q154.40-142.80 161.80-142.80L161.80-142.80Q169-142.80 172.90-138.90Q176.80-135 176.80-127.40L176.80-127.40L176.80-38.40Q176.80-30.20 180.30-26.30Q183.80-22.40 189.60-22.40L189.60-22.40Q191.20-22.40 192.60-22.60Q194-22.80 195.60-22.80L195.60-22.80Q198.80-23.20 200.10-20.90Q201.40-18.60 201.40-11.80L201.40-11.80Q201.40-5.80 199-2.70Q196.60 0.40 191.60 1.40L191.60 1.40Q189.60 1.60 187 1.90Q184.40 2.20 182 2.20ZM255.40 2.20L255.40 2.20Q239.60 2.20 227.90-4Q216.20-10.20 209.80-21.80Q203.40-33.40 203.40-49.20L203.40-49.20Q203.40-61 207.00-70.40Q210.60-79.80 217.50-86.50Q224.40-93.20 234.00-96.70Q243.60-100.20 255.40-100.20L255.40-100.20Q271.20-100.20 282.90-94Q294.60-87.80 301.10-76.40Q307.60-65 307.60-49.20L307.60-49.20Q307.60-37.20 303.90-27.80Q300.20-18.40 293.40-11.60Q286.60-4.80 276.90-1.30Q267.20 2.20 255.40 2.20ZM255.40-20.40L255.40-20.40Q262-20.40 266.80-23.60Q271.60-26.80 274.40-33.10Q277.20-39.40 277.20-49.20L277.20-49.20Q277.20-63.80 271.20-70.70Q265.20-77.60 255.40-77.60L255.40-77.60Q249.00-77.60 244.10-74.60Q239.20-71.60 236.50-65.30Q233.80-59 233.80-49.20L233.80-49.20Q233.80-34.60 239.80-27.50Q245.80-20.40 255.40-20.40ZM466.40 1.80L466.40 1.80Q460.40 1.80 456.20-1.10Q452.00-4 449.40-10.40L449.40-10.40L421.20-80.20Q419.00-85.80 419.80-90.10Q420.60-94.40 424.10-97.10Q427.60-99.80 433.80-99.80L433.80-99.80Q439.00-99.80 442.40-97.30Q445.80-94.80 448.20-87.80L448.20-87.80L467.80-35.40L488.40-90.40Q490.00-95.20 493.10-97.50Q496.20-99.80 501.20-99.80Q506.20-99.80 509.30-97.40Q512.40-95 514.20-90.40L514.20-90.40L534.80-34.40L554.60-88.60Q557-95 560.80-97.40Q564.60-99.80 569-99.80L569-99.80Q574.60-99.80 577.70-97Q580.80-94.20 581.30-89.80Q581.80-85.40 579.60-80.20L579.60-80.20L551.60-10.40Q549.20-4.20 544.90-1.20Q540.60 1.80 534.60 1.80L534.60 1.80Q528.80 1.80 524.50-1.20Q520.20-4.20 517.60-10.40L517.60-10.40L500.20-55.80L483.20-10.60Q480.80-4.40 476.60-1.30Q472.40 1.80 466.40 1.80ZM625.40 2.20L625.40 2.20Q614.60 2.20 606-2Q597.40-6.20 592.60-13.40Q587.80-20.60 587.80-29.60L587.80-29.60Q587.80-40.40 593.40-46.70Q599-53 611.60-55.70Q624.20-58.40 645-58.40L645-58.40L652.20-58.40L652.20-61.80Q652.20-70.60 648.20-74.30Q644.20-78 634.60-78L634.60-78Q629.20-78 622.90-76.70Q616.60-75.40 609-72.40L609-72.40Q604.60-70.40 601.20-71.50Q597.80-72.60 596-75.50Q594.20-78.40 594.20-81.90Q594.20-85.40 596.20-88.70Q598.20-92 602.80-93.60L602.80-93.60Q612.20-97.40 620.50-98.80Q628.80-100.20 635.80-100.20L635.80-100.20Q651.20-100.20 661.10-95.70Q671-91.20 676-81.90Q681-72.60 681-58L681-58L681-13.60Q681-6.20 677.40-2.20Q673.80 1.80 667 1.80Q660.20 1.80 656.50-2.20Q652.80-6.20 652.80-13.60L652.80-13.60L652.80-14.60Q651.40-11 649.20-8.20L649.20-8.20Q645.20-3.20 639.20-0.50Q633.20 2.20 625.40 2.20ZM652.20-38.80L652.20-42.80L645.20-42.80Q635-42.80 628.70-41.70Q622.40-40.60 619.70-38Q617-35.40 617-30.80L617-30.80Q617-25.20 620.90-21.60Q624.80-18 632.20-18L632.20-18Q638-18 642.50-20.70Q647-23.40 649.60-28.10Q652.20-32.80 652.20-38.80L652.20-38.80ZM714.80 37.80L714.80 37.80Q707.40 37.80 703.50 33.90Q699.60 30 699.60 22.40L699.60 22.40L699.60-84.60Q699.60-92 703.50-95.90Q707.40-99.80 714.40-99.80L714.40-99.80Q721.80-99.80 725.60-95.90Q729.40-92 729.40-84.60L729.40-84.60L729.40-84Q732.80-90 739.40-94.40L739.40-94.40Q748.40-100.20 760.20-100.20L760.20-100.20Q773-100.20 782.70-94Q792.40-87.80 797.80-76.40Q803.20-65 803.20-49.20Q803.20-33.40 797.80-21.80Q792.40-10.20 782.80-4Q773.20 2.20 760.20 2.20L760.20 2.20Q748.60 2.20 739.60-3.60L739.60-3.60Q733.20-7.60 729.80-13.20L729.80-13.20L729.80 22.40Q729.80 30 725.90 33.90Q722 37.80 714.80 37.80ZM751.20-20.40L751.20-20.40Q757.60-20.40 762.50-23.60Q767.40-26.80 770.10-33.10Q772.80-39.40 772.80-49.20L772.80-49.20Q772.80-63.80 766.80-70.70Q760.80-77.60 751.20-77.60L751.20-77.60Q744.80-77.60 739.90-74.60Q735-71.60 732.20-65.30Q729.40-59 729.40-49.20L729.40-49.20Q729.40-34.60 735.40-27.50Q741.40-20.40 751.20-20.40Z" fill="#fafafa"></path><g transform="translate(290.87 -123.53) scale(1.4705899999999998)"><g fill="none" stroke="#00ff3f" stroke-width="19" stroke-linecap="round"><path d="M25.5 74.5L74.5 25.5"></path><path d="M25.5 25.5L33 33"></path><path d="M67 67L74.5 74.5"></path></g></g></svg>